PathFileType	4	(X/Y/Z)	C:\Users\Basilio\Documents\Thesis Gigler\squatting_fais\c3dfiles\038\SLS_front_pre1\markers_experimental.trc
DataRate	CameraRate	NumFrames	NumMarkers	Units	OrigDataRate	OrigDataStartFrame	OrigNumFrames
200.000000	200.000000	4	61	mm	200.000000	959	1279
Frame#	Time	FHD			LBHD			RBHD			C7			T10			CLAV			LSHO			LUUPA			LMUPA			LDUPA			LLEP			LMEP			LUL			LRFIN			RSHO			RUPA1			RMUPA			RDUPA			RLEP			RMEP			RRAD			RUL			RUFIN			LASI			RASI			USACR			LSACR			RSACR			LTHI1			LTHI2			LTHI3			LTHI4			LLFC			LMFC			LTIB1			LTIB2			LTIB3			LTIB4			LLMAL			LMMAL			LHEE			LMT1			LMT2			LMT5			RTHI			RTHI2			RTHI3			RTHI4			RLFC			RMFC			RTIB1			RTIB2			RTIB3			RTIB4			RLMAL			RMMAL			RHEE			RMT1			RMT2			RMT5			LRAD			
		X1	Y1	Z1	X2	Y2	Z2	X3	Y3	Z3	X4	Y4	Z4	X5	Y5	Z5	X6	Y6	Z6	X7	Y7	Z7	X8	Y8	Z8	X9	Y9	Z9	X10	Y10	Z10	X11	Y11	Z11	X12	Y12	Z12	X13	Y13	Z13	X14	Y14	Z14	X15	Y15	Z15	X16	Y16	Z16	X17	Y17	Z17	X18	Y18	Z18	X19	Y19	Z19	X20	Y20	Z20	X21	Y21	Z21	X22	Y22	Z22	X23	Y23	Z23	X24	Y24	Z24	X25	Y25	Z25	X26	Y26	Z26	X27	Y27	Z27	X28	Y28	Z28	X29	Y29	Z29	X30	Y30	Z30	X31	Y31	Z31	X32	Y32	Z32	X33	Y33	Z33	X34	Y34	Z34	X35	Y35	Z35	X36	Y36	Z36	X37	Y37	Z37	X38	Y38	Z38	X39	Y39	Z39	X40	Y40	Z40	X41	Y41	Z41	X42	Y42	Z42	X43	Y43	Z43	X44	Y44	Z44	X45	Y45	Z45	X46	Y46	Z46	X47	Y47	Z47	X48	Y48	Z48	X49	Y49	Z49	X50	Y50	Z50	X51	Y51	Z51	X52	Y52	Z52	X53	Y53	Z53	X54	Y54	Z54	X55	Y55	Z55	X56	Y56	Z56	X57	Y57	Z57	X58	Y58	Z58	X59	Y59	Z59	X60	Y60	Z60	X61	Y61	Z61	

960	4.795	-238.6182861328126	1753.225830078125	-1092.764404296875	-394.0641479492189	1703.350830078125	-1154.92138671875	-387.0653381347657	1689.531860351563	-1010.065124511719	-448.3672790527345	1525.540405273438	-1075.458740234375	-442.0874023437501	1243.760009765625	-1047.040649414063	-303.5884399414063	1509.818725585938	-1089.428100585938	-377.8832092285157	1547.825805664063	-1224.200561523438	-214.7516632080079	1487.422973632813	-1353.072021484375	-186.6708221435547	1519.292114257813	-1324.77294921875	-145.6270904541016	1492.8994140625	-1359.3173828125	-84.31423187255861	1493.841064453125	-1358.921875	-76.32518768310548	1418.059936523438	-1337.2197265625	211.4073181152344	1492.5791015625	-1328.76611328125	272.7529602050782	1509.534912109375	-1238.835205078125	-348.5460510253907	1549.774047851563	-948.0513916015627	-187.2305297851563	1524.130981445313	-833.1223754882815	-152.8151397705078	1530.70556640625	-866.0742187500002	-119.5115585327149	1517.185302734375	-817.4155273437502	-47.49029159545899	1510.024780273438	-808.0028076171877	-43.68640136718751	1432.911499023438	-827.9282836914065	232.4242706298829	1499.833129882813	-868.450866699219	238.7602844238282	1510.609008789063	-799.1358032226565	312.4275512695313	1532.910034179688	-867.3252563476565	-268.2445678710938	1048.225708007813	-1142.164916992188	-286.7550048828126	1088.973510742188	-895.395446777344	-446.107147216797	1102.399658203125	-1029.500122070313	-456.076141357422	1069.997314453125	-1053.9423828125	-457.8563537597657	1075.51806640625	-997.5582275390627	-268.2088928222657	726.8366088867189	-1177.276977539063	-228.0691528320313	651.8742675781251	-1168.323486328125	-182.6969604492188	663.9225463867189	-1148.05859375	-249.5256652832032	600.5697631835939	-1147.777587890625	-238.8689727783204	541.8153076171876	-1138.168090820313	-229.0627441406251	539.3722534179689	-1020.952392578125	-225.3659362792969	354.9409484863282	-1055.236206054688	-273.8414306640626	316.1356811523438	-1118.28662109375	-237.872543334961	307.9026794433594	-1088.386596679688	-263.9620971679688	233.5870361328126	-1055.879760742188	-365.2878723144532	113.7628021240235	-1071.113159179688	-327.3486633300782	126.9079818725586	-999.056579589844	-417.1860351562501	93.39217376708986	-1015.452209472656	-215.9118347167969	44.59737396240235	-1016.564575195313	-209.1407012939454	47.30793762207032	-1067.420532226563	-256.7365417480469	35.06230163574219	-1111.51220703125	-221.2123718261719	843.068054199219	-821.8870239257815	-159.077392578125	817.361267089844	-824.4234008789065	-133.4317321777344	836.0540161132815	-834.2812500000002	-141.8117218017578	733.4156494140626	-838.9193115234377	-55.38122558593751	628.5787963867189	-849.7250976562502	-60.13953018188478	624.7098388671876	-971.0732421875002	73.91770935058595	500.1585388183595	-875.9881591796877	50.99226379394533	392.3941345214845	-835.4815673828127	88.40942382812501	418.9595642089845	-847.0450439453127	123.192123413086	381.5884704589844	-876.9492797851565	135.4549560546875	243.1143493652344	-842.6970825195315	155.9658508300782	265.8078918457032	-923.8655395507815	114.7540435791016	168.038070678711	-905.2434692382815	294.8434143066407	291.3088684082032	-897.1511230468752	288.1185607910157	295.5779418945313	-850.455017089844	266.7078247070313	254.1081695556641	-805.796569824219	201.2491455078126	1477.209228515625	-1258.587768554688	
961	4.8	-238.5919189453126	1754.141357421875	-1092.352905273438	-394.3101501464845	1704.463745117188	-1154.293701171875	-387.2276306152345	1690.684692382813	-1009.554504394531	-448.5578613281251	1526.5849609375	-1074.994873046875	-441.309295654297	1244.849609375	-1046.919067382813	-303.7561950683594	1510.943969726563	-1088.890502929688	-378.0664672851563	1549.11181640625	-1223.743896484375	-214.8156738281251	1488.3798828125	-1352.7431640625	-186.6493682861328	1520.365966796875	-1324.44287109375	-145.72900390625	1493.864135742188	-1358.95751953125	-84.42049407958986	1494.794677734375	-1358.606689453125	-76.42996215820314	1419.09375	-1337.005004882813	211.3894805908204	1493.565795898438	-1328.765991210938	272.8833312988282	1510.234375	-1238.773681640625	-348.9227600097657	1550.832397460938	-947.2949829101565	-187.5263977050782	1525.228393554688	-832.4801025390627	-152.9216461181641	1531.59228515625	-865.6815185546877	-119.6774215698242	1517.875122070313	-816.976501464844	-47.52955627441407	1510.980834960938	-807.5181884765627	-43.98395538330079	1433.80126953125	-827.5904541015627	232.2500000000001	1500.643920898438	-868.1333007812502	238.5618743896485	1511.34765625	-798.675231933594	312.1340332031251	1533.657958984375	-866.841491699219	-267.3039550781251	1049.23583984375	-1142.2138671875	-286.0534973144532	1090.1162109375	-895.4461669921877	-445.4712524414064	1103.418701171875	-1029.648193359375	-455.368865966797	1071.161743164063	-1054.087768554688	-456.9851379394532	1076.531005859375	-997.6948242187502	-268.4541320800782	727.5468139648439	-1176.588134765625	-228.8663787841797	652.2656250000001	-1167.299560546875	-183.2368469238282	664.3185424804689	-1147.091674804688	-250.5512390136719	601.2994384765626	-1146.958862304688	-240.2846984863282	542.2576293945314	-1137.235961914063	-230.8085021972657	539.9194335937501	-1019.808471679688	-226.3518981933594	355.4483032226563	-1054.303344726563	-274.3538513183594	316.6217956542969	-1117.623657226563	-238.5689392089844	307.7536621093751	-1087.960327148438	-264.3952331542969	234.0614624023438	-1055.27880859375	-365.1787414550782	113.7547225952149	-1070.956665039063	-327.4297790527344	126.8732528686524	-998.8162231445315	-417.1292724609376	93.41838836669923	-1015.410339355469	-215.9236145019532	44.53609466552735	-1016.406311035156	-209.126449584961	47.41140365600587	-1067.323486328125	-256.6552124023438	35.20476150512696	-1111.36279296875	-221.4566192626954	843.7043457031252	-821.885437011719	-159.502426147461	817.6623535156252	-824.169372558594	-133.7210998535157	836.2502441406252	-834.0653076171877	-142.6457824707032	733.8546752929689	-838.8522949218752	-56.5611915588379	628.3217163085939	-849.3485107421877	-61.34240722656251	624.2864379882814	-970.6458129882815	72.28308868408205	499.669403076172	-875.3956298828127	48.67994689941408	391.8571166992189	-834.9593505859377	86.45781707763673	418.0061035156251	-846.663513183594	121.1630630493164	380.2915039062501	-876.510925292969	133.0011749267578	241.9169616699219	-842.4986572265627	153.5537567138672	264.6149902343751	-923.3684692382815	111.7281951904297	167.0775756835938	-904.5454711914065	292.3629760742188	289.0048828125001	-896.8040161132815	285.8641662597657	293.6769714355469	-850.0522460937502	263.9815063476563	252.5393066406251	-805.554870605469	201.4465332031251	1478.1669921875	-1258.302490234375	
962	4.805	-238.5811920166016	1755.406616210938	-1091.736450195313	-394.496551513672	1705.73828125	-1153.694213867188	-387.3776855468751	1691.787963867188	-1008.908081054688	-448.6868591308595	1527.442749023438	-1074.493041992188	-441.043182373047	1245.569213867188	-1046.917724609375	-303.9103088378907	1512.138427734375	-1088.470458984375	-377.7195739746094	1550.082397460938	-1223.383056640625	-214.9100952148438	1489.409545898438	-1352.335571289063	-186.6408386230469	1521.416748046875	-1324.094360351563	-145.8866119384766	1494.8291015625	-1358.57275390625	-84.52201080322267	1495.857177734375	-1358.229370117188	-76.53258514404298	1420.215576171875	-1336.628051757813	211.2696075439454	1494.365966796875	-1328.526245117188	272.8698425292969	1511.128295898438	-1238.735717773438	-348.9722595214844	1551.593505859375	-946.9628906250002	-187.7720031738282	1526.085083007813	-832.1411743164065	-153.0838317871094	1532.404174804688	-865.1824951171877	-119.9581680297852	1518.847290039063	-816.4565429687502	-47.72722244262696	1511.77392578125	-807.069274902344	-44.31755447387696	1434.5224609375	-827.2301025390627	231.9567108154297	1501.269897460938	-867.7986450195315	238.3690490722657	1512.273803710938	-798.3139648437502	312.0042419433594	1534.66748046875	-866.6945800781252	-266.6715393066407	1050.154296875	-1142.01171875	-285.5271606445313	1091.088500976563	-895.352722167969	-444.6363830566407	1104.684204101563	-1029.931640625	-454.6961975097657	1072.182006835938	-1054.173706054688	-456.4521484375001	1077.74169921875	-997.815612792969	-268.6239013671876	728.5407104492189	-1175.923706054688	-229.3305664062501	652.8319702148439	-1166.374755859375	-184.267822265625	665.0886230468751	-1146.060913085938	-251.5069274902344	601.9820556640626	-1145.936889648438	-241.2518463134766	542.8375854492189	-1136.343872070313	-232.1564636230469	540.5194702148439	-1018.793212890625	-227.0844421386719	356.1226806640626	-1053.55029296875	-274.8108215332032	317.1161193847657	-1116.9658203125	-239.1226501464844	307.8204956054688	-1086.94384765625	-264.5910949707032	234.3365936279297	-1054.640747070313	-365.9910583496094	113.7678375244141	-1071.097290039063	-327.5232543945313	126.8450622558594	-998.526062011719	-417.184051513672	93.39940643310548	-1015.3681640625	-215.8619842529297	44.50129699707032	-1016.373291015625	-209.1072082519532	47.49240493774415	-1067.242797851563	-256.6633605957032	35.30523681640626	-1111.24609375	-221.730453491211	844.1653442382815	-821.4854736328127	-160.0343627929688	816.8187255859377	-823.4014282226565	-133.9385681152344	836.4800415039065	-833.9014892578127	-143.3761138916016	734.0620117187501	-838.6881103515627	-57.68070602416994	628.1482543945314	-849.1026000976565	-62.57506179809572	623.9702758789064	-970.2600708007815	70.48550415039064	498.8319702148439	-875.132995605469	46.62305450439454	391.1220092773439	-834.6480102539065	84.39478302001955	417.2982788085939	-846.250183105469	119.1260147094727	379.9023437500001	-875.6260986328127	130.3034820556641	241.1752319335938	-841.7537231445315	150.6039123535157	264.2873229980469	-922.866149902344	108.5830230712891	166.0281372070313	-904.0040283203127	289.8690185546876	287.1376037597657	-896.286804199219	283.3596496582032	291.8958129882813	-849.6217041015627	261.2727661132813	250.7447662353516	-805.0327758789065	201.3879852294922	1478.895874023438	-1258.246826171875	
963	4.81	-238.8908996582032	1756.021240234375	-1091.18798828125	-394.7528381347657	1706.73193359375	-1153.226684570313	-387.5787353515626	1692.88134765625	-1008.419860839844	-448.717254638672	1528.308349609375	-1074.191162109375	-440.6305236816407	1246.521606445313	-1046.844360351563	-304.0389404296876	1513.2939453125	-1087.963012695313	-378.3811645507813	1551.190307617188	-1222.84130859375	-215.0610046386719	1490.413452148438	-1351.993896484375	-186.9684295654297	1522.219848632813	-1323.848999023438	-145.9002380371094	1495.893920898438	-1358.239868164063	-84.72069549560548	1496.781616210938	-1357.808959960938	-76.5615692138672	1421.115234375	-1336.3447265625	211.1539154052735	1495.253784179688	-1328.484008789063	272.8142700195313	1512.039672851563	-1238.618774414063	-349.3280944824219	1552.610595703125	-946.4788818359377	-187.9420928955078	1526.490234375	-831.5972290039065	-153.1589508056641	1533.159423828125	-864.6502685546877	-119.9085388183594	1519.558715820313	-816.0430908203127	-47.85029602050782	1512.528686523438	-806.639831542969	-44.51537704467774	1435.21435546875	-827.0651855468752	231.8548583984376	1502.226318359375	-867.5779418945315	238.1709594726563	1513.06689453125	-798.0496826171877	311.8486633300782	1535.67724609375	-866.5872192382815	-266.0829467773438	1051.0986328125	-1141.796020507813	-284.6957397460938	1092.148071289063	-895.3967895507815	-443.9679260253907	1105.77587890625	-1030.0302734375	-453.9956970214845	1073.289916992188	-1054.423706054688	-455.7519531250001	1078.750610351563	-997.9641113281252	-268.8338012695313	728.9618530273439	-1175.289184570313	-229.9234619140626	653.3453369140626	-1165.413696289063	-184.536865234375	665.0124511718751	-1144.791381835938	-252.3777770996094	602.6864013671876	-1144.988159179688	-242.0520935058594	543.7416381835939	-1135.299438476563	-233.8366088867188	541.0072021484376	-1017.623291015625	-228.1939697265626	356.6307983398438	-1052.625	-275.3177185058594	317.6706237792969	-1116.386474609375	-239.5818634033204	308.6204528808594	-1086.171508789063	-264.9882507324219	234.7990264892579	-1054.178344726563	-365.9746704101563	113.8634033203125	-1070.864624023438	-327.6179809570313	126.7686538696289	-998.229187011719	-417.1056518554689	93.37106323242189	-1015.325988769531	-215.8658142089844	44.43909454345704	-1016.240539550781	-208.9263763427735	47.69410705566407	-1067.1318359375	-256.5548095703126	35.42350387573243	-1111.119262695313	-221.8919677734376	844.8631591796877	-821.3355712890627	-160.3540191650391	817.4971313476565	-824.4483642578127	-134.1321563720703	836.6538085937502	-833.6643066406252	-143.9797821044922	734.2190551757814	-838.5606689453127	-59.04995727539064	627.8342285156251	-848.6163330078127	-63.89681625366212	623.5195312500001	-969.8887939453127	68.60458374023439	498.0091857910157	-874.3355102539065	44.51394271850587	390.2019958496095	-834.1848754882815	82.41039276123048	416.2948303222657	-845.7219238281252	116.7489242553711	378.3300476074219	-875.438171386719	126.9606704711914	239.9974517822266	-840.871032714844	147.8756408691407	262.5259704589844	-922.130554199219	105.2800750732422	165.1212005615235	-903.3295898437502	286.8666076660157	285.2531127929688	-895.8365478515627	280.7157592773438	289.9862365722657	-849.1772460937502	258.7302246093751	248.9364929199219	-804.5682373046877	201.3637390136719	1479.029907226563	-1257.431640625	
